<?xml version="1.0" standalone="no"?>
<!DOCTYPE svg PUBLIC "-//W3C//DTD SVG 1.1//EN" "http://www.w3.org/Graphics/SVG/1.1/DTD/svg11.dtd"><svg t="1678008644147"
    class="icon" viewBox="0 0 1024 1024" version="1.1" xmlns="http://www.w3.org/2000/svg" p-id="2747"
    xmlns:xlink="http://www.w3.org/1999/xlink" width="200" height="200">
    <path
        d="M877 859.2L166.2 148.4c-14.4-14.4-14.4-37.8 0-52.2 14.4-14.4 37.8-14.4 52.2 0L929.2 807c14.4 14.4 14.4 37.8 0 52.2-14.3 14.4-37.8 14.4-52.2 0z"
        p-id="2748"></path>
    <path
        d="M166.2 807L877 96.2c14.4-14.4 37.8-14.4 52.2 0 14.4 14.4 14.4 37.8 0 52.2L218.4 859.2c-14.4 14.4-37.8 14.4-52.2 0-14.3-14.3-14.3-37.8 0-52.2z"
        p-id="2749"></path>
</svg>