<?xml version="1.0" standalone="no"?>
<!DOCTYPE svg PUBLIC "-//W3C//DTD SVG 1.1//EN" "http://www.w3.org/Graphics/SVG/1.1/DTD/svg11.dtd"><svg t="1675764736165"
    class="icon" viewBox="0 0 1024 1024" version="1.1" xmlns="http://www.w3.org/2000/svg" p-id="2755"
    xmlns:xlink="http://www.w3.org/1999/xlink" width="200" height="200">
    <path
        d="M512 341.333333a128 128 0 0 0-42.666667 248.746667 42.666667 42.666667 0 0 0 0 7.253333v256a42.666667 42.666667 0 0 0 85.333334 0v-256a42.666667 42.666667 0 0 0 0-7.253333A128 128 0 0 0 512 341.333333zM149.333333 469.333333a293.12 293.12 0 0 1 112.64-223.146666 42.666667 42.666667 0 1 0-54.613333-65.706667A377.173333 377.173333 0 0 0 64 469.333333a377.173333 377.173333 0 0 0 143.36 288.853334 42.666667 42.666667 0 1 0 54.613333-65.706667A293.12 293.12 0 0 1 149.333333 469.333333z"
        p-id="2756"></path>
    <path
        d="M709.973333 266.24a42.666667 42.666667 0 0 0-54.613333 64.853333A182.613333 182.613333 0 0 1 725.333333 469.333333a182.613333 182.613333 0 0 1-69.973333 138.24A42.666667 42.666667 0 0 0 682.666667 682.666667a42.666667 42.666667 0 0 0 27.306666-10.24A264.533333 264.533333 0 0 0 810.666667 469.333333a264.533333 264.533333 0 0 0-100.693334-203.093333zM373.76 271.36a42.666667 42.666667 0 0 0-59.733333-5.12A264.533333 264.533333 0 0 0 213.333333 469.333333a264.533333 264.533333 0 0 0 100.693334 203.093334 42.666667 42.666667 0 0 0 59.733333-5.12 42.666667 42.666667 0 0 0-5.12-59.733334A182.613333 182.613333 0 0 1 298.666667 469.333333a182.613333 182.613333 0 0 1 69.973333-138.24 42.666667 42.666667 0 0 0 5.12-59.733333z"
        p-id="2757"></path>
    <path
        d="M816.64 180.48a42.666667 42.666667 0 1 0-54.613333 65.706667A293.12 293.12 0 0 1 874.666667 469.333333a293.12 293.12 0 0 1-112.64 223.146667 42.666667 42.666667 0 0 0 54.613333 65.706667A377.173333 377.173333 0 0 0 960 469.333333a377.173333 377.173333 0 0 0-143.36-288.853333z"
        p-id="2758"></path>
</svg>